<svg width="67" height="118" viewBox="0 0 67 118" fill="none" xmlns="http://www.w3.org/2000/svg">
<circle cx="33.5" cy="32.5" r="32" fill="#F2F2F2"/>
<g clip-path="url(#clip0_1841_26)">
<path d="M35.575 26.6687C32.5312 26.7812 24.9812 27.6375 24.9812 34.0125C24.9812 40.8563 33.625 41.1375 36.45 36.7125C36.8562 37.35 38.6625 39.0563 39.2812 39.6375L42.8312 36.1375C42.8312 36.1375 40.8125 34.5562 40.8125 32.8375V23.6438C40.8125 22.0625 39.2812 18.5 33.7937 18.5C28.2937 18.5 25.375 21.9375 25.375 25.0188L29.9687 25.4438C30.9875 22.35 33.3562 22.35 33.3562 22.35C35.9 22.3438 35.575 24.2125 35.575 26.6687ZM35.575 32.0938C35.575 37.0938 30.3125 36.3438 30.3125 33.1688C30.3125 30.2188 33.4687 29.625 35.575 29.5562V32.0938ZM44.075 42.3125C43.5937 42.9375 39.7 46.5 33.1687 46.5C26.6375 46.5 21.6375 42.0312 20.1062 40.1875C19.6812 39.7062 20.1687 39.4813 20.45 39.6688C25.0312 42.45 32.1875 47.0312 43.7312 41.5625C44.2 41.3312 44.5625 41.6875 44.075 42.3125ZM46.5625 42.45C46.1562 43.4375 45.5625 44.125 45.2375 44.3875C44.8937 44.6688 44.6437 44.5562 44.8312 44.15C45.0187 43.7437 46.0375 41.2437 45.625 40.7125C45.2187 40.1938 43.3125 40.4438 42.625 40.5125C41.95 40.575 41.8125 40.6375 41.75 40.4937C41.6062 40.1375 43.1062 39.525 44.0937 39.4C45.075 39.2875 46.6562 39.35 46.9687 39.7563C47.2 40.075 46.9687 41.45 46.5625 42.45Z" fill="black"/>
</g>
<path d="M6.69336 102.892L3.21289 113.5H0.40918L5.16406 100.703H6.94824L6.69336 102.892ZM9.58496 113.5L6.0957 102.892L5.81445 100.703H7.61621L12.3975 113.5H9.58496ZM9.42676 108.736V110.802H2.66797V108.736H9.42676ZM15.6758 105.959V113.5H13.1357V103.99H15.5176L15.6758 105.959ZM15.3242 108.411H14.6211C14.6211 107.749 14.7002 107.14 14.8584 106.583C15.0225 106.021 15.2598 105.534 15.5703 105.124C15.8867 104.708 16.2764 104.386 16.7393 104.157C17.2021 103.929 17.7383 103.814 18.3477 103.814C18.7695 103.814 19.1562 103.879 19.5078 104.008C19.8594 104.131 20.1611 104.327 20.4131 104.597C20.6709 104.86 20.8701 105.206 21.0107 105.634C21.1514 106.056 21.2217 106.562 21.2217 107.154V113.5H18.6904V107.436C18.6904 107.002 18.6318 106.668 18.5146 106.434C18.3975 106.199 18.2305 106.035 18.0137 105.941C17.8027 105.848 17.5479 105.801 17.249 105.801C16.9209 105.801 16.6338 105.868 16.3877 106.003C16.1475 106.138 15.9482 106.325 15.79 106.565C15.6318 106.8 15.5146 107.075 15.4385 107.392C15.3623 107.708 15.3242 108.048 15.3242 108.411ZM20.9844 108.121L20.0791 108.235C20.0791 107.614 20.1553 107.037 20.3076 106.504C20.4658 105.971 20.6973 105.502 21.002 105.098C21.3125 104.693 21.6963 104.38 22.1533 104.157C22.6104 103.929 23.1377 103.814 23.7354 103.814C24.1924 103.814 24.6084 103.882 24.9834 104.017C25.3584 104.146 25.6777 104.354 25.9414 104.641C26.2109 104.922 26.416 105.291 26.5566 105.748C26.7031 106.205 26.7764 106.765 26.7764 107.427V113.5H24.2363V107.427C24.2363 106.987 24.1777 106.653 24.0605 106.425C23.9492 106.19 23.7852 106.029 23.5684 105.941C23.3574 105.848 23.1055 105.801 22.8125 105.801C22.5078 105.801 22.2412 105.862 22.0127 105.985C21.7842 106.103 21.5938 106.267 21.4414 106.478C21.2891 106.688 21.1748 106.935 21.0986 107.216C21.0225 107.491 20.9844 107.793 20.9844 108.121ZM33.8691 111.355V107.119C33.8691 106.814 33.8193 106.554 33.7197 106.337C33.6201 106.114 33.4648 105.941 33.2539 105.818C33.0488 105.695 32.7822 105.634 32.4541 105.634C32.1729 105.634 31.9297 105.684 31.7246 105.783C31.5195 105.877 31.3613 106.015 31.25 106.196C31.1387 106.372 31.083 106.58 31.083 106.82H28.5518C28.5518 106.416 28.6455 106.032 28.833 105.669C29.0205 105.306 29.293 104.986 29.6504 104.711C30.0078 104.43 30.4326 104.21 30.9248 104.052C31.4229 103.894 31.9795 103.814 32.5947 103.814C33.333 103.814 33.9893 103.938 34.5635 104.184C35.1377 104.43 35.5889 104.799 35.917 105.291C36.251 105.783 36.418 106.398 36.418 107.137V111.206C36.418 111.728 36.4502 112.155 36.5146 112.489C36.5791 112.817 36.6729 113.104 36.7959 113.351V113.5H34.2383C34.1152 113.242 34.0215 112.92 33.957 112.533C33.8984 112.141 33.8691 111.748 33.8691 111.355ZM34.2031 107.708L34.2207 109.141H32.8057C32.4717 109.141 32.1816 109.179 31.9355 109.255C31.6895 109.331 31.4873 109.439 31.3291 109.58C31.1709 109.715 31.0537 109.873 30.9775 110.055C30.9072 110.236 30.8721 110.436 30.8721 110.652C30.8721 110.869 30.9219 111.065 31.0215 111.241C31.1211 111.411 31.2646 111.546 31.4521 111.646C31.6396 111.739 31.8594 111.786 32.1113 111.786C32.4922 111.786 32.8232 111.71 33.1045 111.558C33.3857 111.405 33.6025 111.218 33.7549 110.995C33.9131 110.772 33.9951 110.562 34.001 110.362L34.6689 111.435C34.5752 111.675 34.4463 111.924 34.2822 112.182C34.124 112.439 33.9219 112.683 33.6758 112.911C33.4297 113.134 33.1338 113.318 32.7881 113.465C32.4424 113.605 32.0322 113.676 31.5576 113.676C30.9541 113.676 30.4062 113.556 29.9141 113.315C29.4277 113.069 29.041 112.732 28.7539 112.305C28.4727 111.871 28.332 111.379 28.332 110.828C28.332 110.33 28.4258 109.888 28.6133 109.501C28.8008 109.114 29.0762 108.789 29.4395 108.525C29.8086 108.256 30.2686 108.054 30.8193 107.919C31.3701 107.778 32.0088 107.708 32.7354 107.708H34.2031ZM45.9365 111.522V113.5H38.7119V111.522H45.9365ZM45.7959 105.449L39.7314 113.5H38.0352V111.997L44.0732 103.99H45.7959V105.449ZM44.8994 103.99V105.977H38.1758V103.99H44.8994ZM46.9824 108.842V108.657C46.9824 107.96 47.082 107.318 47.2812 106.732C47.4805 106.141 47.7705 105.628 48.1514 105.194C48.5322 104.761 49.001 104.424 49.5576 104.184C50.1143 103.938 50.7529 103.814 51.4736 103.814C52.1943 103.814 52.8359 103.938 53.3984 104.184C53.9609 104.424 54.4326 104.761 54.8135 105.194C55.2002 105.628 55.4932 106.141 55.6924 106.732C55.8916 107.318 55.9912 107.96 55.9912 108.657V108.842C55.9912 109.533 55.8916 110.175 55.6924 110.767C55.4932 111.353 55.2002 111.865 54.8135 112.305C54.4326 112.738 53.9639 113.075 53.4072 113.315C52.8506 113.556 52.2119 113.676 51.4912 113.676C50.7705 113.676 50.1289 113.556 49.5664 113.315C49.0098 113.075 48.5381 112.738 48.1514 112.305C47.7705 111.865 47.4805 111.353 47.2812 110.767C47.082 110.175 46.9824 109.533 46.9824 108.842ZM49.5137 108.657V108.842C49.5137 109.24 49.5488 109.612 49.6191 109.958C49.6895 110.304 49.8008 110.608 49.9531 110.872C50.1113 111.13 50.3164 111.332 50.5684 111.479C50.8203 111.625 51.1279 111.698 51.4912 111.698C51.8428 111.698 52.1445 111.625 52.3965 111.479C52.6484 111.332 52.8506 111.13 53.0029 110.872C53.1553 110.608 53.2666 110.304 53.3369 109.958C53.4131 109.612 53.4512 109.24 53.4512 108.842V108.657C53.4512 108.271 53.4131 107.907 53.3369 107.567C53.2666 107.222 53.1523 106.917 52.9941 106.653C52.8418 106.384 52.6396 106.173 52.3877 106.021C52.1357 105.868 51.8311 105.792 51.4736 105.792C51.1162 105.792 50.8115 105.868 50.5596 106.021C50.3135 106.173 50.1113 106.384 49.9531 106.653C49.8008 106.917 49.6895 107.222 49.6191 107.567C49.5488 107.907 49.5137 108.271 49.5137 108.657ZM60.0254 106.021V113.5H57.4941V103.99H59.8672L60.0254 106.021ZM59.6562 108.411H58.9707C58.9707 107.708 59.0615 107.075 59.2432 106.513C59.4248 105.944 59.6797 105.461 60.0078 105.062C60.3359 104.658 60.7256 104.351 61.1768 104.14C61.6338 103.923 62.1436 103.814 62.7061 103.814C63.1514 103.814 63.5586 103.879 63.9277 104.008C64.2969 104.137 64.6133 104.342 64.877 104.623C65.1465 104.904 65.3516 105.276 65.4922 105.739C65.6387 106.202 65.7119 106.768 65.7119 107.436V113.5H63.1631V107.427C63.1631 107.005 63.1045 106.677 62.9873 106.442C62.8701 106.208 62.6973 106.044 62.4688 105.95C62.2461 105.851 61.9707 105.801 61.6426 105.801C61.3027 105.801 61.0068 105.868 60.7549 106.003C60.5088 106.138 60.3037 106.325 60.1396 106.565C59.9814 106.8 59.8613 107.075 59.7793 107.392C59.6973 107.708 59.6562 108.048 59.6562 108.411Z" fill="black"/>
<defs>
<clipPath id="clip0_1841_26">
<rect width="28" height="32" fill="white" transform="translate(19.5 16.5)"/>
</clipPath>
</defs>
</svg>
