<svg width="31" height="28" viewBox="0 0 31 28" fill="none" xmlns="http://www.w3.org/2000/svg">
<path d="M15.6995 7.26758C11.4405 7.26758 8.00527 10.2734 8.00527 14C8.00527 17.7266 11.4405 20.7324 15.6995 20.7324C19.9584 20.7324 23.3937 17.7266 23.3937 14C23.3937 10.2734 19.9584 7.26758 15.6995 7.26758ZM15.6995 18.377C12.9472 18.377 10.6972 16.4141 10.6972 14C10.6972 11.5859 12.9405 9.62305 15.6995 9.62305C18.4584 9.62305 20.7017 11.5859 20.7017 14C20.7017 16.4141 18.4517 18.377 15.6995 18.377ZM25.503 6.99219C25.503 7.86523 24.6995 8.5625 23.7084 8.5625C22.7106 8.5625 21.9137 7.85938 21.9137 6.99219C21.9137 6.125 22.7173 5.42187 23.7084 5.42187C24.6995 5.42187 25.503 6.125 25.503 6.99219ZM30.599 8.58594C30.4852 6.48242 29.9361 4.61914 28.1749 3.08398C26.4204 1.54883 24.291 1.06836 21.887 0.962891C19.4093 0.839844 11.9829 0.839844 9.50527 0.962891C7.10794 1.0625 4.97848 1.54297 3.21732 3.07812C1.45616 4.61328 0.913749 6.47656 0.793213 8.58008C0.652588 10.748 0.652588 17.2461 0.793213 19.4141C0.907052 21.5176 1.45616 23.3809 3.21732 24.916C4.97848 26.4512 7.10125 26.9316 9.50527 27.0371C11.9829 27.1602 19.4093 27.1602 21.887 27.0371C24.291 26.9375 26.4204 26.457 28.1749 24.916C29.9294 23.3809 30.4785 21.5176 30.599 19.4141C30.7396 17.2461 30.7396 10.7539 30.599 8.58594ZM27.3981 21.7402C26.8758 22.8887 25.8646 23.7734 24.5454 24.2363C22.57 24.9219 17.8825 24.7637 15.6995 24.7637C13.5164 24.7637 8.82223 24.916 6.85348 24.2363C5.54098 23.7793 4.52982 22.8945 4.0008 21.7402C3.21732 20.0117 3.39812 15.9102 3.39812 14C3.39812 12.0898 3.22402 7.98242 4.0008 6.25977C4.52312 5.11133 5.53428 4.22656 6.85348 3.76367C8.82893 3.07812 13.5164 3.23633 15.6995 3.23633C17.8825 3.23633 22.5767 3.08398 24.5454 3.76367C25.8579 4.2207 26.8691 5.10547 27.3981 6.25977C28.1816 7.98828 28.0008 12.0898 28.0008 14C28.0008 15.9102 28.1816 20.0176 27.3981 21.7402Z" fill="black"/>
</svg>
